<?xml version="1.0" encoding="utf-8"?>
<!-- Generator: Adobe Illustrator 19.2.1, SVG Export Plug-In . SVG Version: 6.00 Build 0)  -->
<svg version="1.1" id="Layer_1" xmlns="http://www.w3.org/2000/svg" xmlns:xlink="http://www.w3.org/1999/xlink" x="0px" y="0px"
	 viewBox="0 0 50 50" style="enable-background:new 0 0 50 50;" xml:space="preserve">
<style type="text/css">
	.st0{fill:#FF3E03;}
	.st1{fill:#FFFFFF;}
</style>
<g>
	<g>
		<circle class="st0" cx="25" cy="20" r="20"/>
		<g>
			<path class="st1" d="M14.9,16.7v-1.8h5.7l1.5-7l1.7,0l-1.5,7h7.5l1.5-7h1.8l-1.5,7h3.5v1.8h-3.9l-1.4,6.7h5.3v1.8h-5.6l-1.4,7
				l-1.8,0l1.5-7h-7.5l-1.4,7l-1.8,0l1.5-7h-3.6v-1.8h3.9l1.4-6.7H14.9z M29.5,16.7H22l-1.4,6.7h7.6L29.5,16.7z"/>
		</g>
	</g>
</g>
<g>
	<path class="st0" d="M32.2,34.9c0.2,0.3,0.3,0.8,0.3,1.2c0,0.5-0.1,0.9-0.3,1.2c0,0-7,12.7-7.2,12.7c-0.3,0-7.2-12.7-7.2-12.7
		c-0.2-0.3-0.3-0.8-0.3-1.2c0-0.5,0.1-0.9,0.3-1.2c0.2-0.3,0.4-0.5,0.7-0.5h13.1C31.8,34.4,32,34.5,32.2,34.9z"/>
</g>
</svg>
